<?xml version="1.0" encoding="UTF-8" standalone="no" ?>
<!DOCTYPE svg PUBLIC "-//W3C//DTD SVG 1.1//EN" "http://www.w3.org/Graphics/SVG/1.1/DTD/svg11.dtd">
<svg xmlns="http://www.w3.org/2000/svg" xmlns:xlink="http://www.w3.org/1999/xlink" version="1.1" width="1280" height="1024" viewBox="0 0 1280 1024" xml:space="preserve">
<desc>Created with Fabric.js 4.4.0</desc>
<defs>
</defs>
<g transform="matrix(1 0 0 1 640 512)" id="background-logo"  >
<rect style="stroke: none; stroke-width: 0; stroke-dasharray: none; stroke-linecap: butt; stroke-dashoffset: 0; stroke-linejoin: miter; stroke-miterlimit: 4; fill: rgb(20,17,9); fill-rule: nonzero; opacity: 1;"  paint-order="stroke"  x="-640" y="-512" rx="0" ry="0" width="1280" height="1024" />
</g>
<g transform="matrix(1.9211538461538462 0 0 1.9211538461538462 803.038747303502 504.4218165384616)" id="text-logo-path"  >
<path style="stroke: none; stroke-width: 0; stroke-dasharray: none; stroke-linecap: butt; stroke-dashoffset: 0; stroke-linejoin: miter; stroke-miterlimit: 4; fill: rgb(212,184,85); fill-rule: nonzero; opacity: 1;"  paint-order="stroke"  transform=" translate(-181.7832860950253, 38.335)" d="M 24.53 0 L 4.84 0 Q 4.4 0 4.4 -0.55 L 4.4 -0.55 L 4.62 -76.12 Q 4.62 -76.56 5.06 -76.56 L 5.06 -76.56 L 26.18 -76.56 Q 32.45 -76.56 37.4 -73.53 Q 42.35 -70.51 45.21 -65.56 Q 48.07 -60.61 48.07 -54.78 L 48.07 -54.78 Q 48.07 -50.05 45.92 -45.98 Q 43.78 -41.91 40.81 -39.38 L 40.81 -39.38 Q 44 -36.19 45.76 -32.01 Q 47.52 -27.83 47.52 -23.21 L 47.52 -23.21 Q 47.52 -16.83 44.44 -11.55 Q 41.36 -6.27 36.13 -3.14 Q 30.91 0 24.53 0 L 24.53 0 Z M 17.82 -63.47 L 17.82 -46.2 L 26.18 -46.2 Q 30.03 -46.2 32.4 -48.9 Q 34.76 -51.59 34.76 -54.78 L 34.76 -54.78 Q 34.76 -58.3 32.23 -60.88 Q 29.7 -63.47 26.18 -63.47 L 26.18 -63.47 L 17.82 -63.47 Z M 17.82 -32.89 L 17.71 -13.42 L 24.53 -13.42 Q 28.49 -13.42 31.35 -16.34 Q 34.21 -19.25 34.21 -23.21 L 34.21 -23.21 Q 34.21 -27.17 31.35 -30.03 Q 28.49 -32.89 24.53 -32.89 L 24.53 -32.89 L 17.82 -32.89 Z M 68.42 0 L 55.99 0 Q 55.44 0 55.44 -0.55 L 55.44 -0.55 L 55.55 -76.12 Q 55.55 -76.56 55.99 -76.56 L 55.99 -76.56 L 68.31 -76.56 Q 68.75 -76.56 68.75 -76.12 L 68.75 -76.12 L 68.86 -0.55 Q 68.86 0 68.42 0 L 68.42 0 Z M 101.97 0 L 89.54 0 Q 89.1 0 89.1 -0.55 L 89.1 -0.55 L 89.1 -63.25 L 74.8 -63.25 Q 74.25 -63.25 74.25 -63.8 L 74.25 -63.8 L 74.36 -76.12 Q 74.36 -76.56 74.8 -76.56 L 74.8 -76.56 L 116.6 -76.56 Q 117.15 -76.56 117.15 -76.12 L 117.15 -76.12 L 117.15 -63.8 Q 117.15 -63.25 116.71 -63.25 L 116.71 -63.25 L 102.3 -63.25 L 102.41 -0.55 Q 102.41 0 101.97 0 L 101.97 0 Z M 140.69 1.1 L 140.69 1.1 Q 134.75 1.1 129.86 -1.93 Q 124.96 -4.95 122.05 -9.96 Q 119.13 -14.96 119.13 -21.01 L 119.13 -21.01 L 119.13 -26.07 Q 119.13 -26.62 119.68 -26.62 L 119.68 -26.62 L 132 -26.62 Q 132.44 -26.62 132.44 -26.07 L 132.44 -26.07 L 132.44 -21.01 Q 132.44 -17.38 134.86 -14.79 Q 137.28 -12.21 140.69 -12.21 L 140.69 -12.21 Q 144.1 -12.21 146.52 -14.85 Q 148.94 -17.49 148.94 -21.01 L 148.94 -21.01 Q 148.94 -25.08 143.66 -28.05 L 143.66 -28.05 Q 141.9 -29.04 138.16 -31.13 Q 134.42 -33.22 131.12 -35.09 L 131.12 -35.09 Q 125.07 -38.61 122.16 -43.95 Q 119.24 -49.28 119.24 -55.99 L 119.24 -55.99 Q 119.24 -62.15 122.21 -67.05 Q 125.18 -71.94 130.07 -74.8 Q 134.97 -77.66 140.69 -77.66 L 140.69 -77.66 Q 146.52 -77.66 151.42 -74.75 Q 156.31 -71.83 159.22 -66.94 Q 162.14 -62.04 162.14 -55.99 L 162.14 -55.99 L 162.14 -46.97 Q 162.14 -46.53 161.7 -46.53 L 161.7 -46.53 L 149.38 -46.53 Q 148.94 -46.53 148.94 -46.97 L 148.94 -46.97 L 148.83 -55.99 Q 148.83 -59.84 146.41 -62.26 Q 143.99 -64.68 140.69 -64.68 L 140.69 -64.68 Q 137.28 -64.68 134.86 -62.09 Q 132.44 -59.51 132.44 -55.99 L 132.44 -55.99 Q 132.44 -52.36 133.98 -49.94 Q 135.52 -47.52 139.59 -45.32 L 139.59 -45.32 Q 140.14 -44.99 141.74 -44.16 Q 143.33 -43.34 145.2 -42.3 Q 147.07 -41.25 148.56 -40.48 Q 150.04 -39.71 150.37 -39.49 L 150.37 -39.49 Q 155.87 -36.41 159.06 -31.96 Q 162.25 -27.5 162.25 -21.01 L 162.25 -21.01 Q 162.25 -14.74 159.34 -9.73 Q 156.42 -4.73 151.53 -1.81 Q 146.63 1.1 140.69 1.1 Z M 192.83 0 L 180.4 0 Q 179.96 0 179.96 -0.55 L 179.96 -0.55 L 179.96 -63.25 L 165.66 -63.25 Q 165.11 -63.25 165.11 -63.8 L 165.11 -63.8 L 165.22 -76.12 Q 165.22 -76.56 165.66 -76.56 L 165.66 -76.56 L 207.46 -76.56 Q 208.01 -76.56 208.01 -76.12 L 208.01 -76.12 L 208.01 -63.8 Q 208.01 -63.25 207.57 -63.25 L 207.57 -63.25 L 193.16 -63.25 L 193.27 -0.55 Q 193.27 0 192.83 0 L 192.83 0 Z M 232.65 1.1 L 232.65 1.1 Q 226.71 1.1 221.81 -1.93 Q 216.92 -4.95 213.95 -9.96 Q 210.98 -14.96 210.98 -21.01 L 210.98 -21.01 L 211.09 -55.88 Q 211.09 -61.93 214 -66.88 Q 216.92 -71.83 221.87 -74.8 Q 226.82 -77.77 232.65 -77.77 L 232.65 -77.77 Q 238.59 -77.77 243.43 -74.8 Q 248.27 -71.83 251.19 -66.88 Q 254.1 -61.93 254.1 -55.88 L 254.1 -55.88 L 254.21 -21.01 Q 254.21 -14.96 251.3 -9.96 Q 248.38 -4.95 243.49 -1.93 Q 238.59 1.1 232.65 1.1 Z M 232.65 -12.21 L 232.65 -12.21 Q 235.95 -12.21 238.43 -14.9 Q 240.9 -17.6 240.9 -21.01 L 240.9 -21.01 L 240.79 -55.88 Q 240.79 -59.51 238.48 -62.04 Q 236.17 -64.57 232.65 -64.57 L 232.65 -64.57 Q 229.24 -64.57 226.82 -62.09 Q 224.4 -59.62 224.4 -55.88 L 224.4 -55.88 L 224.4 -21.01 Q 224.4 -17.38 226.82 -14.79 Q 229.24 -12.21 232.65 -12.21 Z M 282.81 1.1 L 282.81 1.1 Q 276.76 1.1 271.87 -1.93 Q 266.97 -4.95 264.11 -10.01 Q 261.25 -15.07 261.25 -21.34 L 261.25 -21.34 L 261.36 -55.66 Q 261.36 -61.71 264.17 -66.72 Q 266.97 -71.72 271.87 -74.75 Q 276.76 -77.77 282.81 -77.77 L 282.81 -77.77 Q 288.86 -77.77 293.7 -74.8 Q 298.54 -71.83 301.4 -66.83 Q 304.26 -61.82 304.26 -55.66 L 304.26 -55.66 L 304.26 -50.6 Q 304.26 -50.16 303.82 -50.16 L 303.82 -50.16 L 291.5 -50.16 Q 291.06 -50.16 291.06 -50.6 L 291.06 -50.6 L 291.06 -55.66 Q 291.06 -59.29 288.69 -61.93 Q 286.33 -64.57 282.81 -64.57 L 282.81 -64.57 Q 278.85 -64.57 276.76 -61.88 Q 274.67 -59.18 274.67 -55.66 L 274.67 -55.66 L 274.67 -21.34 Q 274.67 -17.27 277.04 -14.74 Q 279.4 -12.21 282.81 -12.21 L 282.81 -12.21 Q 286.33 -12.21 288.69 -15.02 Q 291.06 -17.82 291.06 -21.34 L 291.06 -21.34 L 291.06 -26.4 Q 291.06 -26.84 291.5 -26.84 L 291.5 -26.84 L 303.93 -26.84 Q 304.37 -26.84 304.37 -26.4 L 304.37 -26.4 L 304.37 -21.34 Q 304.37 -15.07 301.46 -10.01 Q 298.54 -4.95 293.7 -1.93 Q 288.86 1.1 282.81 1.1 Z M 325.27 0 L 312.84 0 Q 312.4 0 312.4 -0.55 L 312.4 -0.55 L 312.62 -76.01 Q 312.62 -76.56 313.06 -76.56 L 313.06 -76.56 L 325.38 -76.56 Q 325.82 -76.56 325.82 -76.01 L 325.82 -76.01 L 325.82 -49.94 L 343.09 -76.12 Q 343.42 -76.56 343.86 -76.56 L 343.86 -76.56 L 356.51 -76.56 Q 356.95 -76.56 356.73 -76.12 L 356.73 -76.12 L 337.7 -45.76 L 359.04 -0.44 Q 359.26 0 358.49 0 L 358.49 0 L 345.07 0 Q 344.52 0 344.41 -0.44 L 344.41 -0.44 L 329.56 -32.78 L 325.71 -26.73 L 325.71 -0.55 Q 325.71 0 325.27 0 L 325.27 0 Z" stroke-linecap="round" />
</g>
<g transform="matrix(0.9904392507043228 0 0 0.9904392507043228 285.2580524941497 512)" id="logo-logo"  >
<g style=""  paint-order="stroke"   >
		<g transform="matrix(4.170286353230319 0 0 -4.170286353230319 -16.645697978918804 16.66237912433178)"  >
<linearGradient id="SVGID_1_11_11_103845" gradientUnits="userSpaceOnUse" gradientTransform="matrix(0 -56.059998 -56.059998 0 49.975006 74.619995)"  x1="0" y1="0" x2="1" y2="0">
<stop offset="0%" style="stop-color:rgb(229,212,117);stop-opacity: 1"/>
<stop offset="1.8404899999999997%" style="stop-color:rgb(229,212,117);stop-opacity: 1"/>
<stop offset="93.86%" style="stop-color:rgb(196,156,53);stop-opacity: 1"/>
<stop offset="100%" style="stop-color:rgb(196,156,53);stop-opacity: 1"/>
</linearGradient>
<path style="stroke: none; stroke-width: 1; stroke-dasharray: none; stroke-linecap: butt; stroke-dashoffset: 0; stroke-linejoin: miter; stroke-miterlimit: 4; fill: url(#SVGID_1_11_11_103845); fill-rule: nonzero; opacity: 1;"  paint-order="stroke"  transform=" translate(-49.974999999999994, -46.58999999999999)" d="M 40.66 72.61 L 40.66 60.55 L 39.37 60.91 L 26.96 58.9 L 26.96 31.22 C 30.04 26.74 34.34 23.161 39.370000000000005 20.979999999999997 L 39.370000000000005 20.979999999999997 C 39.790000000000006 20.789999999999996 40.220000000000006 20.609999999999996 40.660000000000004 20.449999999999996 L 40.660000000000004 20.449999999999996 C 42.230000000000004 19.849999999999994 43.88 19.379999999999995 45.581 19.069999999999997 L 45.581 19.069999999999997 C 47.33 18.73 49.15 18.56 51 18.56 L 51 18.56 C 51.701 18.56 52.39 18.581 53.08 18.639999999999997 L 53.08 18.639999999999997 C 53.51 18.660999999999998 53.94 18.699999999999996 54.37 18.759999999999998 L 54.37 18.759999999999998 C 56.059999999999995 18.95 57.699999999999996 19.29 59.29 19.759999999999998 L 59.29 19.759999999999998 C 61.969 20.549999999999997 64.48 21.720999999999997 66.78 23.209999999999997 L 66.78 23.209999999999997 C 69.1 24.689999999999998 71.19 26.499999999999996 72.99 28.569999999999997 L 72.99 28.569999999999997 L 72.99 49.14999999999999 L 66.78 50.90999999999999 L 59.29 49.69999999999999 L 59.29 72.86999999999999 L 53.08 74.61999999999999 z" stroke-linecap="round" />
</g>
		<g transform="matrix(4.170286353230319 0 0 -4.170286353230319 -86.74821157672045 40.203645588316874)"  >
<linearGradient id="SVGID_2_12_12_103846" gradientUnits="userSpaceOnUse" gradientTransform="matrix(12.409973 0 0 -12.409973 26.960022 40.945038)"  x1="0" y1="0" x2="1" y2="0">
<stop offset="0%" style="stop-color:rgb(218,193,95);stop-opacity: 1"/>
<stop offset="8.65922%" style="stop-color:rgb(218,193,95);stop-opacity: 1"/>
<stop offset="45.4159%" style="stop-color:rgb(229,212,117);stop-opacity: 1"/>
<stop offset="85.8074%" style="stop-color:rgb(248,246,165);stop-opacity: 1"/>
<stop offset="100%" style="stop-color:rgb(248,246,165);stop-opacity: 1"/>
</linearGradient>
<path style="stroke: none; stroke-width: 1; stroke-dasharray: none; stroke-linecap: butt; stroke-dashoffset: 0; stroke-linejoin: miter; stroke-miterlimit: 4; fill: url(#SVGID_2_12_12_103846); fill-rule: nonzero; opacity: 1;"  paint-order="stroke"  transform=" translate(-33.165000000000006, -40.94499999999999)" d="M 26.96 58.9 L 26.96 31.22 C 30.04 26.74 34.34 23.161 39.370000000000005 20.979999999999997 L 39.370000000000005 20.979999999999997 L 39.370000000000005 60.91 z" stroke-linecap="round" />
</g>
		<g transform="matrix(4.170286353230319 0 0 -4.170286353230319 -47.92076048496966 44.18626905565179)"  >
<linearGradient id="SVGID_3_13_13_103847" gradientUnits="userSpaceOnUse" gradientTransform="matrix(0 -41.840027 -41.840027 0 42.475006 60.910034)"  x1="0" y1="0" x2="1" y2="0">
<stop offset="0%" style="stop-color:rgb(229,212,117);stop-opacity: 1"/>
<stop offset="1.8404899999999997%" style="stop-color:rgb(229,212,117);stop-opacity: 1"/>
<stop offset="93.86%" style="stop-color:rgb(196,156,53);stop-opacity: 1"/>
<stop offset="100%" style="stop-color:rgb(196,156,53);stop-opacity: 1"/>
</linearGradient>
<path style="stroke: none; stroke-width: 1; stroke-dasharray: none; stroke-linecap: butt; stroke-dashoffset: 0; stroke-linejoin: miter; stroke-miterlimit: 4; fill: url(#SVGID_3_13_13_103847); fill-rule: nonzero; opacity: 1;"  paint-order="stroke"  transform=" translate(-42.4755, -39.99)" d="M 39.37 20.98 C 39.79 20.79 40.22 20.61 40.66 20.45 L 40.66 20.45 C 42.23 19.849999999999998 43.879999999999995 19.38 45.580999999999996 19.07 L 45.580999999999996 19.07 L 45.580999999999996 59.161 L 40.66 60.550000000000004 L 39.37 60.910000000000004 z" stroke-linecap="round" />
</g>
		<g transform="matrix(4.170286353230319 0 0 -4.170286353230319 -29.594437105699 16.66237912433178)"  >
<linearGradient id="SVGID_4_14_14_103848" gradientUnits="userSpaceOnUse" gradientTransform="matrix(12.420044 0 0 -12.420044 40.659973 46.589996)"  x1="0" y1="0" x2="1" y2="0">
<stop offset="0%" style="stop-color:rgb(218,193,95);stop-opacity: 1"/>
<stop offset="8.65922%" style="stop-color:rgb(218,193,95);stop-opacity: 1"/>
<stop offset="45.4159%" style="stop-color:rgb(229,212,117);stop-opacity: 1"/>
<stop offset="85.8074%" style="stop-color:rgb(248,246,165);stop-opacity: 1"/>
<stop offset="100%" style="stop-color:rgb(248,246,165);stop-opacity: 1"/>
</linearGradient>
<path style="stroke: none; stroke-width: 1; stroke-dasharray: none; stroke-linecap: butt; stroke-dashoffset: 0; stroke-linejoin: miter; stroke-miterlimit: 4; fill: url(#SVGID_4_14_14_103848); fill-rule: nonzero; opacity: 1;"  paint-order="stroke"  transform=" translate(-46.87, -46.58999999999999)" d="M 40.66 72.61 L 40.66 20.45 C 42.23 19.849999999999998 43.879999999999995 19.38 45.580999999999996 19.07 L 45.580999999999996 19.07 C 47.33 18.73 49.15 18.56 51 18.56 L 51 18.56 C 51.701 18.56 52.39 18.581 53.08 18.639999999999997 L 53.08 18.639999999999997 L 53.08 74.61999999999999 z" stroke-linecap="round" />
</g>
		<g transform="matrix(4.170286353230319 0 0 -4.170286353230319 9.251780274641476 16.49556767020249)"  >
<linearGradient id="SVGID_5_15_15_103849" gradientUnits="userSpaceOnUse" gradientTransform="matrix(0 -55.97998 -55.97998 0 56.184998 74.619995)"  x1="0" y1="0" x2="1" y2="0">
<stop offset="0%" style="stop-color:rgb(229,212,117);stop-opacity: 1"/>
<stop offset="1.8404899999999997%" style="stop-color:rgb(229,212,117);stop-opacity: 1"/>
<stop offset="93.86%" style="stop-color:rgb(196,156,53);stop-opacity: 1"/>
<stop offset="100%" style="stop-color:rgb(196,156,53);stop-opacity: 1"/>
</linearGradient>
<path style="stroke: none; stroke-width: 1; stroke-dasharray: none; stroke-linecap: butt; stroke-dashoffset: 0; stroke-linejoin: miter; stroke-miterlimit: 4; fill: url(#SVGID_5_15_15_103849); fill-rule: nonzero; opacity: 1;"  paint-order="stroke"  transform=" translate(-56.185, -46.63)" d="M 53.08 18.64 C 53.51 18.661 53.94 18.7 54.37 18.76 L 54.37 18.76 C 56.059999999999995 18.950000000000003 57.699999999999996 19.290000000000003 59.29 19.76 L 59.29 19.76 L 59.29 72.87 L 53.08 74.62 z" stroke-linecap="round" />
</g>
		<g transform="matrix(4.170286353230319 0 0 -4.170286353230319 27.559337365322563 65.6840952065541)"  >
<linearGradient id="SVGID_6_16_16_103850" gradientUnits="userSpaceOnUse" gradientTransform="matrix(12.410034 0 0 -12.410034 54.369995 34.835022)"  x1="0" y1="0" x2="1" y2="0">
<stop offset="0%" style="stop-color:rgb(218,193,95);stop-opacity: 1"/>
<stop offset="8.65922%" style="stop-color:rgb(218,193,95);stop-opacity: 1"/>
<stop offset="45.4159%" style="stop-color:rgb(229,212,117);stop-opacity: 1"/>
<stop offset="85.8074%" style="stop-color:rgb(248,246,165);stop-opacity: 1"/>
<stop offset="100%" style="stop-color:rgb(248,246,165);stop-opacity: 1"/>
</linearGradient>
<path style="stroke: none; stroke-width: 1; stroke-dasharray: none; stroke-linecap: butt; stroke-dashoffset: 0; stroke-linejoin: miter; stroke-miterlimit: 4; fill: url(#SVGID_6_16_16_103850); fill-rule: nonzero; opacity: 1;"  paint-order="stroke"  transform=" translate(-60.575, -34.834999999999994)" d="M 59.29 49.7 L 54.37 48.9 L 54.37 18.76 C 56.059999999999995 18.950000000000003 57.699999999999996 19.290000000000003 59.29 19.76 L 59.29 19.76 C 61.969 20.55 64.48 21.721 66.78 23.21 L 66.78 23.21 L 66.78 50.91 z" stroke-linecap="round" />
</g>
		<g transform="matrix(4.170286353230319 0 0 -4.170286353230319 66.38470331389675 56.40520807061665)"  >
<linearGradient id="SVGID_7_17_17_103851" gradientUnits="userSpaceOnUse" gradientTransform="matrix(0 -27.700012 -27.700012 0 69.88501 50.910034)"  x1="0" y1="0" x2="1" y2="0">
<stop offset="0%" style="stop-color:rgb(229,212,117);stop-opacity: 1"/>
<stop offset="1.8404899999999997%" style="stop-color:rgb(229,212,117);stop-opacity: 1"/>
<stop offset="93.86%" style="stop-color:rgb(196,156,53);stop-opacity: 1"/>
<stop offset="100%" style="stop-color:rgb(196,156,53);stop-opacity: 1"/>
</linearGradient>
<path style="stroke: none; stroke-width: 1; stroke-dasharray: none; stroke-linecap: butt; stroke-dashoffset: 0; stroke-linejoin: miter; stroke-miterlimit: 4; fill: url(#SVGID_7_17_17_103851); fill-rule: nonzero; opacity: 1;"  paint-order="stroke"  transform=" translate(-69.88499999999999, -37.06)" d="M 66.78 23.21 C 69.1 24.69 71.19 26.5 72.99 28.57 L 72.99 28.57 L 72.99 49.15 L 66.78 50.91 z" stroke-linecap="round" />
</g>
		<g transform="matrix(4.170286353230319 0 0 -4.170286353230319 -11.914508111179032 -0.020851431766203632)"  >
<linearGradient id="SVGID_8_18_18_103852" gradientUnits="userSpaceOnUse" gradientTransform="matrix(37.653248 -51.774425 -51.774425 -37.653248 32.283203 76.477676)"  x1="0" y1="0" x2="1" y2="0">
<stop offset="0%" style="stop-color:rgb(196,156,53);stop-opacity: 1"/>
<stop offset="54.9131%" style="stop-color:rgb(229,212,117);stop-opacity: 1"/>
<stop offset="93.86%" style="stop-color:rgb(196,156,53);stop-opacity: 1"/>
<stop offset="100%" style="stop-color:rgb(196,156,53);stop-opacity: 1"/>
</linearGradient>
<path style="stroke: none; stroke-width: 1; stroke-dasharray: none; stroke-linecap: butt; stroke-dashoffset: 0; stroke-linejoin: miter; stroke-miterlimit: 4; fill: url(#SVGID_8_18_18_103852); fill-rule: nonzero; opacity: 1;"  paint-order="stroke"  transform=" translate(-51.1095, -50.5905)" d="M 19.089 50.59 C 19.089 32.934000000000005 33.454 18.57 51.11 18.57 L 51.11 18.57 C 68.76599999999999 18.57 83.13 32.934 83.13 50.59 L 83.13 50.59 C 83.13 68.247 68.76599999999999 82.611 51.10999999999999 82.611 L 51.10999999999999 82.611 C 33.454 82.611 19.089 68.247 19.089 50.59 M 20.09 50.59 C 20.09 67.69500000000001 34.004999999999995 81.611 51.11 81.611 L 51.11 81.611 C 68.215 81.611 82.13 67.69500000000001 82.13 50.59 L 82.13 50.59 C 82.13 33.485 68.215 19.57 51.11 19.57 L 51.11 19.57 C 34.004999999999995 19.57 20.09 33.485 20.09 50.59" stroke-linecap="round" />
</g>
		<g transform="matrix(4.170286353230319 0 0 -4.170286353230319 96.3544661913865 -76.689480892729)"  >
<radialGradient id="SVGID_9_19_19_103853" gradientUnits="userSpaceOnUse" gradientTransform="matrix(11.744638 0 0 -11.744638 77.071281 68.975021)"  cx="0" cy="0" r="1" fx="0" fy="0">
<stop offset="0%" style="stop-color:rgb(255,255,255);stop-opacity: 1"/>
<stop offset="23.463700000000003%" style="stop-color:rgb(229,212,117);stop-opacity: 1"/>
<stop offset="100%" style="stop-color:rgb(196,156,53);stop-opacity: 1"/>
</radialGradient>
<path style="stroke: none; stroke-width: 1; stroke-dasharray: none; stroke-linecap: butt; stroke-dashoffset: 0; stroke-linejoin: miter; stroke-miterlimit: 4; fill: url(#SVGID_9_19_19_103853); fill-rule: nonzero; opacity: 1;"  paint-order="stroke"  transform=" translate(-77.07150000000001, -68.975)" d="M 76.486 71.123 L 71.36800000000001 79.217 L 75.49100000000001 70.574 L 67.19900000000001 75.362 L 74.86700000000002 69.627 L 65.29900000000002 70.01299999999999 L 74.75300000000001 68.49699999999999 L 66.10200000000002 64.39199999999998 L 75.17800000000003 67.44399999999999 L 69.42600000000003 59.78999999999999 L 76.04400000000003 66.71 L 74.50700000000002 57.257999999999996 L 77.15200000000002 66.46 L 80.18400000000001 57.37899999999999 L 78.24800000000002 66.75599999999999 L 85.15400000000002 60.12299999999998 L 79.08200000000002 67.52699999999999 L 88.27900000000002 64.86199999999998 L 79.46200000000002 68.59699999999998 L 88.84400000000002 70.51099999999998 L 79.30200000000002 69.71999999999998 L 86.71900000000002 75.77499999999998 L 78.63700000000003 70.64199999999998 L 82.39100000000003 79.44999999999999 L 77.62000000000003 71.148 L 76.85100000000003 80.692 z" stroke-linecap="round" />
</g>
</g>
</g>
</svg>