<?xml version="1.0" encoding="UTF-8" standalone="no" ?>
<!DOCTYPE svg PUBLIC "-//W3C//DTD SVG 1.1//EN" "http://www.w3.org/Graphics/SVG/1.1/DTD/svg11.dtd">
<svg xmlns="http://www.w3.org/2000/svg" xmlns:xlink="http://www.w3.org/1999/xlink" version="1.1" width="1280" height="1024" viewBox="0 0 1280 1024" xml:space="preserve">
<desc>Created with Fabric.js 4.4.0</desc>
<defs>
</defs>
<g transform="matrix(1 0 0 1 640 512)" id="background-logo"  >
<rect style="stroke: none; stroke-width: 0; stroke-dasharray: none; stroke-linecap: butt; stroke-dashoffset: 0; stroke-linejoin: miter; stroke-miterlimit: 4; fill: rgb(255,255,255); fill-opacity: 0; fill-rule: nonzero; opacity: 1;"  paint-order="stroke"  x="-640" y="-512" rx="0" ry="0" width="1280" height="1024" />
</g>
<g transform="matrix(1.9211538461538462 0 0 1.9211538461538462 640.0000000000001 512.0000000000001)" id="logo-logo"  >
<g style=""  paint-order="stroke"   >
		<g transform="matrix(4.170286353230319 0 0 -4.170286353230319 -16.645697978918804 16.66237912433178)"  >
<linearGradient id="SVGID_30_281289" gradientUnits="userSpaceOnUse" gradientTransform="matrix(0 -56.059998 -56.059998 0 49.975006 74.619995)"  x1="0" y1="0" x2="1" y2="0">
<stop offset="0%" style="stop-color:rgb(229,212,117);stop-opacity: 1"/>
<stop offset="1.8404899999999997%" style="stop-color:rgb(229,212,117);stop-opacity: 1"/>
<stop offset="93.86%" style="stop-color:rgb(196,156,53);stop-opacity: 1"/>
<stop offset="100%" style="stop-color:rgb(196,156,53);stop-opacity: 1"/>
</linearGradient>
<path style="stroke: none; stroke-width: 1; stroke-dasharray: none; stroke-linecap: butt; stroke-dashoffset: 0; stroke-linejoin: miter; stroke-miterlimit: 4; fill: url(#SVGID_30_281289); fill-rule: nonzero; opacity: 1;"  paint-order="stroke"  transform=" translate(-49.974999999999994, -46.58999999999999)" d="M 40.66 72.61 L 40.66 60.55 L 39.37 60.91 L 26.96 58.9 L 26.96 31.22 C 30.04 26.74 34.34 23.161 39.370000000000005 20.979999999999997 L 39.370000000000005 20.979999999999997 C 39.790000000000006 20.789999999999996 40.220000000000006 20.609999999999996 40.660000000000004 20.449999999999996 L 40.660000000000004 20.449999999999996 C 42.230000000000004 19.849999999999994 43.88 19.379999999999995 45.581 19.069999999999997 L 45.581 19.069999999999997 C 47.33 18.73 49.15 18.56 51 18.56 L 51 18.56 C 51.701 18.56 52.39 18.581 53.08 18.639999999999997 L 53.08 18.639999999999997 C 53.51 18.660999999999998 53.94 18.699999999999996 54.37 18.759999999999998 L 54.37 18.759999999999998 C 56.059999999999995 18.95 57.699999999999996 19.29 59.29 19.759999999999998 L 59.29 19.759999999999998 C 61.969 20.549999999999997 64.48 21.720999999999997 66.78 23.209999999999997 L 66.78 23.209999999999997 C 69.1 24.689999999999998 71.19 26.499999999999996 72.99 28.569999999999997 L 72.99 28.569999999999997 L 72.99 49.14999999999999 L 66.78 50.90999999999999 L 59.29 49.69999999999999 L 59.29 72.86999999999999 L 53.08 74.61999999999999 z" stroke-linecap="round" />
</g>
		<g transform="matrix(4.170286353230319 0 0 -4.170286353230319 -86.74821157672045 40.203645588316874)"  >
<linearGradient id="SVGID_31_281290" gradientUnits="userSpaceOnUse" gradientTransform="matrix(12.409973 0 0 -12.409973 26.960022 40.945038)"  x1="0" y1="0" x2="1" y2="0">
<stop offset="0%" style="stop-color:rgb(218,193,95);stop-opacity: 1"/>
<stop offset="8.65922%" style="stop-color:rgb(218,193,95);stop-opacity: 1"/>
<stop offset="45.4159%" style="stop-color:rgb(229,212,117);stop-opacity: 1"/>
<stop offset="85.8074%" style="stop-color:rgb(248,246,165);stop-opacity: 1"/>
<stop offset="100%" style="stop-color:rgb(248,246,165);stop-opacity: 1"/>
</linearGradient>
<path style="stroke: none; stroke-width: 1; stroke-dasharray: none; stroke-linecap: butt; stroke-dashoffset: 0; stroke-linejoin: miter; stroke-miterlimit: 4; fill: url(#SVGID_31_281290); fill-rule: nonzero; opacity: 1;"  paint-order="stroke"  transform=" translate(-33.165000000000006, -40.94499999999999)" d="M 26.96 58.9 L 26.96 31.22 C 30.04 26.74 34.34 23.161 39.370000000000005 20.979999999999997 L 39.370000000000005 20.979999999999997 L 39.370000000000005 60.91 z" stroke-linecap="round" />
</g>
		<g transform="matrix(4.170286353230319 0 0 -4.170286353230319 -47.92076048496966 44.18626905565179)"  >
<linearGradient id="SVGID_32_281291" gradientUnits="userSpaceOnUse" gradientTransform="matrix(0 -41.840027 -41.840027 0 42.475006 60.910034)"  x1="0" y1="0" x2="1" y2="0">
<stop offset="0%" style="stop-color:rgb(229,212,117);stop-opacity: 1"/>
<stop offset="1.8404899999999997%" style="stop-color:rgb(229,212,117);stop-opacity: 1"/>
<stop offset="93.86%" style="stop-color:rgb(196,156,53);stop-opacity: 1"/>
<stop offset="100%" style="stop-color:rgb(196,156,53);stop-opacity: 1"/>
</linearGradient>
<path style="stroke: none; stroke-width: 1; stroke-dasharray: none; stroke-linecap: butt; stroke-dashoffset: 0; stroke-linejoin: miter; stroke-miterlimit: 4; fill: url(#SVGID_32_281291); fill-rule: nonzero; opacity: 1;"  paint-order="stroke"  transform=" translate(-42.4755, -39.99)" d="M 39.37 20.98 C 39.79 20.79 40.22 20.61 40.66 20.45 L 40.66 20.45 C 42.23 19.849999999999998 43.879999999999995 19.38 45.580999999999996 19.07 L 45.580999999999996 19.07 L 45.580999999999996 59.161 L 40.66 60.550000000000004 L 39.37 60.910000000000004 z" stroke-linecap="round" />
</g>
		<g transform="matrix(4.170286353230319 0 0 -4.170286353230319 -29.594437105699 16.66237912433178)"  >
<linearGradient id="SVGID_33_281292" gradientUnits="userSpaceOnUse" gradientTransform="matrix(12.420044 0 0 -12.420044 40.659973 46.589996)"  x1="0" y1="0" x2="1" y2="0">
<stop offset="0%" style="stop-color:rgb(218,193,95);stop-opacity: 1"/>
<stop offset="8.65922%" style="stop-color:rgb(218,193,95);stop-opacity: 1"/>
<stop offset="45.4159%" style="stop-color:rgb(229,212,117);stop-opacity: 1"/>
<stop offset="85.8074%" style="stop-color:rgb(248,246,165);stop-opacity: 1"/>
<stop offset="100%" style="stop-color:rgb(248,246,165);stop-opacity: 1"/>
</linearGradient>
<path style="stroke: none; stroke-width: 1; stroke-dasharray: none; stroke-linecap: butt; stroke-dashoffset: 0; stroke-linejoin: miter; stroke-miterlimit: 4; fill: url(#SVGID_33_281292); fill-rule: nonzero; opacity: 1;"  paint-order="stroke"  transform=" translate(-46.87, -46.58999999999999)" d="M 40.66 72.61 L 40.66 20.45 C 42.23 19.849999999999998 43.879999999999995 19.38 45.580999999999996 19.07 L 45.580999999999996 19.07 C 47.33 18.73 49.15 18.56 51 18.56 L 51 18.56 C 51.701 18.56 52.39 18.581 53.08 18.639999999999997 L 53.08 18.639999999999997 L 53.08 74.61999999999999 z" stroke-linecap="round" />
</g>
		<g transform="matrix(4.170286353230319 0 0 -4.170286353230319 9.251780274641476 16.49556767020249)"  >
<linearGradient id="SVGID_34_281293" gradientUnits="userSpaceOnUse" gradientTransform="matrix(0 -55.97998 -55.97998 0 56.184998 74.619995)"  x1="0" y1="0" x2="1" y2="0">
<stop offset="0%" style="stop-color:rgb(229,212,117);stop-opacity: 1"/>
<stop offset="1.8404899999999997%" style="stop-color:rgb(229,212,117);stop-opacity: 1"/>
<stop offset="93.86%" style="stop-color:rgb(196,156,53);stop-opacity: 1"/>
<stop offset="100%" style="stop-color:rgb(196,156,53);stop-opacity: 1"/>
</linearGradient>
<path style="stroke: none; stroke-width: 1; stroke-dasharray: none; stroke-linecap: butt; stroke-dashoffset: 0; stroke-linejoin: miter; stroke-miterlimit: 4; fill: url(#SVGID_34_281293); fill-rule: nonzero; opacity: 1;"  paint-order="stroke"  transform=" translate(-56.185, -46.63)" d="M 53.08 18.64 C 53.51 18.661 53.94 18.7 54.37 18.76 L 54.37 18.76 C 56.059999999999995 18.950000000000003 57.699999999999996 19.290000000000003 59.29 19.76 L 59.29 19.76 L 59.29 72.87 L 53.08 74.62 z" stroke-linecap="round" />
</g>
		<g transform="matrix(4.170286353230319 0 0 -4.170286353230319 27.559337365322563 65.6840952065541)"  >
<linearGradient id="SVGID_35_281294" gradientUnits="userSpaceOnUse" gradientTransform="matrix(12.410034 0 0 -12.410034 54.369995 34.835022)"  x1="0" y1="0" x2="1" y2="0">
<stop offset="0%" style="stop-color:rgb(218,193,95);stop-opacity: 1"/>
<stop offset="8.65922%" style="stop-color:rgb(218,193,95);stop-opacity: 1"/>
<stop offset="45.4159%" style="stop-color:rgb(229,212,117);stop-opacity: 1"/>
<stop offset="85.8074%" style="stop-color:rgb(248,246,165);stop-opacity: 1"/>
<stop offset="100%" style="stop-color:rgb(248,246,165);stop-opacity: 1"/>
</linearGradient>
<path style="stroke: none; stroke-width: 1; stroke-dasharray: none; stroke-linecap: butt; stroke-dashoffset: 0; stroke-linejoin: miter; stroke-miterlimit: 4; fill: url(#SVGID_35_281294); fill-rule: nonzero; opacity: 1;"  paint-order="stroke"  transform=" translate(-60.575, -34.834999999999994)" d="M 59.29 49.7 L 54.37 48.9 L 54.37 18.76 C 56.059999999999995 18.950000000000003 57.699999999999996 19.290000000000003 59.29 19.76 L 59.29 19.76 C 61.969 20.55 64.48 21.721 66.78 23.21 L 66.78 23.21 L 66.78 50.91 z" stroke-linecap="round" />
</g>
		<g transform="matrix(4.170286353230319 0 0 -4.170286353230319 66.38470331389675 56.40520807061665)"  >
<linearGradient id="SVGID_36_281295" gradientUnits="userSpaceOnUse" gradientTransform="matrix(0 -27.700012 -27.700012 0 69.88501 50.910034)"  x1="0" y1="0" x2="1" y2="0">
<stop offset="0%" style="stop-color:rgb(229,212,117);stop-opacity: 1"/>
<stop offset="1.8404899999999997%" style="stop-color:rgb(229,212,117);stop-opacity: 1"/>
<stop offset="93.86%" style="stop-color:rgb(196,156,53);stop-opacity: 1"/>
<stop offset="100%" style="stop-color:rgb(196,156,53);stop-opacity: 1"/>
</linearGradient>
<path style="stroke: none; stroke-width: 1; stroke-dasharray: none; stroke-linecap: butt; stroke-dashoffset: 0; stroke-linejoin: miter; stroke-miterlimit: 4; fill: url(#SVGID_36_281295); fill-rule: nonzero; opacity: 1;"  paint-order="stroke"  transform=" translate(-69.88499999999999, -37.06)" d="M 66.78 23.21 C 69.1 24.69 71.19 26.5 72.99 28.57 L 72.99 28.57 L 72.99 49.15 L 66.78 50.91 z" stroke-linecap="round" />
</g>
		<g transform="matrix(4.170286353230319 0 0 -4.170286353230319 -11.914508111179032 -0.020851431766203632)"  >
<linearGradient id="SVGID_37_281296" gradientUnits="userSpaceOnUse" gradientTransform="matrix(37.653248 -51.774425 -51.774425 -37.653248 32.283203 76.477676)"  x1="0" y1="0" x2="1" y2="0">
<stop offset="0%" style="stop-color:rgb(196,156,53);stop-opacity: 1"/>
<stop offset="54.9131%" style="stop-color:rgb(229,212,117);stop-opacity: 1"/>
<stop offset="93.86%" style="stop-color:rgb(196,156,53);stop-opacity: 1"/>
<stop offset="100%" style="stop-color:rgb(196,156,53);stop-opacity: 1"/>
</linearGradient>
<path style="stroke: none; stroke-width: 1; stroke-dasharray: none; stroke-linecap: butt; stroke-dashoffset: 0; stroke-linejoin: miter; stroke-miterlimit: 4; fill: url(#SVGID_37_281296); fill-rule: nonzero; opacity: 1;"  paint-order="stroke"  transform=" translate(-51.1095, -50.5905)" d="M 19.089 50.59 C 19.089 32.934000000000005 33.454 18.57 51.11 18.57 L 51.11 18.57 C 68.76599999999999 18.57 83.13 32.934 83.13 50.59 L 83.13 50.59 C 83.13 68.247 68.76599999999999 82.611 51.10999999999999 82.611 L 51.10999999999999 82.611 C 33.454 82.611 19.089 68.247 19.089 50.59 M 20.09 50.59 C 20.09 67.69500000000001 34.004999999999995 81.611 51.11 81.611 L 51.11 81.611 C 68.215 81.611 82.13 67.69500000000001 82.13 50.59 L 82.13 50.59 C 82.13 33.485 68.215 19.57 51.11 19.57 L 51.11 19.57 C 34.004999999999995 19.57 20.09 33.485 20.09 50.59" stroke-linecap="round" />
</g>
		<g transform="matrix(4.170286353230319 0 0 -4.170286353230319 96.3544661913865 -76.689480892729)"  >
<radialGradient id="SVGID_38_281297" gradientUnits="userSpaceOnUse" gradientTransform="matrix(11.744638 0 0 -11.744638 77.071281 68.975021)"  cx="0" cy="0" r="1" fx="0" fy="0">
<stop offset="0%" style="stop-color:rgb(255,255,255);stop-opacity: 1"/>
<stop offset="23.463700000000003%" style="stop-color:rgb(229,212,117);stop-opacity: 1"/>
<stop offset="100%" style="stop-color:rgb(196,156,53);stop-opacity: 1"/>
</radialGradient>
<path style="stroke: none; stroke-width: 1; stroke-dasharray: none; stroke-linecap: butt; stroke-dashoffset: 0; stroke-linejoin: miter; stroke-miterlimit: 4; fill: url(#SVGID_38_281297); fill-rule: nonzero; opacity: 1;"  paint-order="stroke"  transform=" translate(-77.07150000000001, -68.975)" d="M 76.486 71.123 L 71.36800000000001 79.217 L 75.49100000000001 70.574 L 67.19900000000001 75.362 L 74.86700000000002 69.627 L 65.29900000000002 70.01299999999999 L 74.75300000000001 68.49699999999999 L 66.10200000000002 64.39199999999998 L 75.17800000000003 67.44399999999999 L 69.42600000000003 59.78999999999999 L 76.04400000000003 66.71 L 74.50700000000002 57.257999999999996 L 77.15200000000002 66.46 L 80.18400000000001 57.37899999999999 L 78.24800000000002 66.75599999999999 L 85.15400000000002 60.12299999999998 L 79.08200000000002 67.52699999999999 L 88.27900000000002 64.86199999999998 L 79.46200000000002 68.59699999999998 L 88.84400000000002 70.51099999999998 L 79.30200000000002 69.71999999999998 L 86.71900000000002 75.77499999999998 L 78.63700000000003 70.64199999999998 L 82.39100000000003 79.44999999999999 L 77.62000000000003 71.148 L 76.85100000000003 80.692 z" stroke-linecap="round" />
</g>
</g>
</g>
</svg>