<?xml version="1.0" encoding="UTF-8"?>
<!DOCTYPE svg PUBLIC "-//W3C//DTD SVG 1.1//EN" "http://www.w3.org/Graphics/SVG/1.1/DTD/svg11.dtd">
<svg xmlns="http://www.w3.org/2000/svg" version="1.1" width="256px" height="256px" style="shape-rendering:geometricPrecision; text-rendering:geometricPrecision; image-rendering:optimizeQuality; fill-rule:evenodd; clip-rule:evenodd" xmlns:xlink="http://www.w3.org/1999/xlink">
<g><path style="opacity:1" fill="#fefefe" d="M -0.5,-0.5 C 84.8333,-0.5 170.167,-0.5 255.5,-0.5C 255.5,13.5 255.5,27.5 255.5,41.5C 236.448,28.4566 217.115,15.7899 197.5,3.5C 177.626,12.6056 157.96,21.9389 138.5,31.5C 135.515,32.3257 132.849,33.659 130.5,35.5C 129.508,35.3284 128.842,35.6618 128.5,36.5C 125.314,37.5969 122.314,38.9303 119.5,40.5C 117.847,40.6596 116.514,41.3263 115.5,42.5C 111.182,43.9922 107.182,45.9922 103.5,48.5C 103.167,48.5 102.833,48.5 102.5,48.5C 99.5198,49.3234 96.8531,50.6567 94.5,52.5C 92.1815,52.9925 90.1815,53.9925 88.5,55.5C 85.5152,56.3257 82.8485,57.659 80.5,59.5C 77.0884,60.0749 74.0884,61.4082 71.5,63.5C 66.5156,65.3255 61.8489,67.6589 57.5,70.5C 52.749,71.7105 48.4156,73.7105 44.5,76.5C 37.8315,78.9372 31.4982,81.9372 25.5,85.5C 20.3106,87.5968 15.3106,89.9302 10.5,92.5C 8.74203,92.8769 7.07536,93.5435 5.5,94.5C 4.51298,97.7683 4.17964,101.102 4.5,104.5C 2.82601,121.302 1.15935,137.969 -0.5,154.5C -0.5,102.833 -0.5,51.1667 -0.5,-0.5 Z"/></g>
<g><path style="opacity:1" fill="#1c77b8" d="M 255.5,41.5 C 255.5,42.8333 255.5,44.1667 255.5,45.5C 234.167,54.8331 213.5,65.1664 193.5,76.5C 185.95,78.9409 178.616,81.9409 171.5,85.5C 161.517,66.8656 150.517,48.8656 138.5,31.5C 157.96,21.9389 177.626,12.6056 197.5,3.5C 217.115,15.7899 236.448,28.4566 255.5,41.5 Z"/></g>
<g><path style="opacity:1" fill="#1f7cb1" d="M 138.5,31.5 C 150.517,48.8656 161.517,66.8656 171.5,85.5C 169.365,87.0709 167.032,88.4043 164.5,89.5C 164.657,88.1266 164.49,86.7932 164,85.5C 156.104,73.4499 148.771,61.1166 142,48.5C 139.259,44.0297 136.259,39.6964 133,35.5C 132.023,36.7736 131.189,36.7736 130.5,35.5C 132.849,33.659 135.515,32.3257 138.5,31.5 Z"/></g>
<g><path style="opacity:1" fill="#2281ab" d="M 130.5,35.5 C 131.189,36.7736 132.023,36.7736 133,35.5C 136.259,39.6964 139.259,44.0297 142,48.5C 148.771,61.1166 156.104,73.4499 164,85.5C 164.49,86.7932 164.657,88.1266 164.5,89.5C 162.95,90.4408 161.284,91.1075 159.5,91.5C 155.056,82.1083 149.722,73.2749 143.5,65C 139.647,56.6905 134.814,48.5239 129,40.5C 128.51,39.2068 128.343,37.8734 128.5,36.5C 128.842,35.6618 129.508,35.3284 130.5,35.5 Z"/></g>
<g><path style="opacity:1" fill="#2586a5" d="M 128.5,36.5 C 128.343,37.8734 128.51,39.2068 129,40.5C 134.814,48.5239 139.647,56.6905 143.5,65C 149.722,73.2749 155.056,82.1083 159.5,91.5C 156.995,93.0114 154.328,94.3447 151.5,95.5C 151.414,94.5041 151.748,93.6708 152.5,93C 141.6,75.3515 130.6,57.8515 119.5,40.5C 122.314,38.9303 125.314,37.5969 128.5,36.5 Z"/></g>
<g><path style="opacity:1" fill="#288c9f" d="M 119.5,40.5 C 130.6,57.8515 141.6,75.3515 152.5,93C 151.748,93.6708 151.414,94.5041 151.5,95.5C 150.833,95.8333 150.167,96.1667 149.5,96.5C 148.811,95.2264 147.977,95.2264 147,96.5C 140.675,87.1827 135.009,77.5161 130,67.5C 127.425,64.681 125.092,61.681 123,58.5C 120.199,53.2349 117.699,47.9016 115.5,42.5C 116.514,41.3263 117.847,40.6596 119.5,40.5 Z"/></g>
<g><path style="opacity:1" fill="#2c9397" d="M 115.5,42.5 C 117.699,47.9016 120.199,53.2349 123,58.5C 125.092,61.681 127.425,64.681 130,67.5C 135.009,77.5161 140.675,87.1827 147,96.5C 147.977,95.2264 148.811,95.2264 149.5,96.5C 146.167,98.1667 142.833,99.8333 139.5,101.5C 128.76,84.3608 118.26,67.0274 108,49.5C 106.644,48.6198 105.144,48.2865 103.5,48.5C 107.182,45.9922 111.182,43.9922 115.5,42.5 Z"/></g>
<g><path style="opacity:1" fill="#fdfefe" d="M 255.5,45.5 C 255.5,115.5 255.5,185.5 255.5,255.5C 170.167,255.5 84.8333,255.5 -0.5,255.5C -0.5,227.167 -0.5,198.833 -0.5,170.5C 18.6434,182.908 37.6434,195.575 56.5,208.5C 76.5966,222.08 96.5966,235.914 116.5,250C 118.066,250.3 119.399,249.8 120.5,248.5C 123.899,246.801 127.232,245.134 130.5,243.5C 132.954,242.773 135.287,241.773 137.5,240.5C 140.833,238.833 144.167,237.167 147.5,235.5C 150.167,234.167 152.833,232.833 155.5,231.5C 158.289,230.352 160.956,229.019 163.5,227.5C 166.622,226.439 169.622,225.105 172.5,223.5C 175.833,221.833 179.167,220.167 182.5,218.5C 184.5,217.5 186.5,216.5 188.5,215.5C 190.368,214.737 192.035,213.737 193.5,212.5C 195.284,212.107 196.95,211.441 198.5,210.5C 200.153,210.34 201.486,209.674 202.5,208.5C 205.485,207.674 208.151,206.341 210.5,204.5C 212.153,204.34 213.486,203.674 214.5,202.5C 216.153,202.34 217.486,201.674 218.5,200.5C 220.153,200.34 221.486,199.674 222.5,198.5C 224.819,198.008 226.819,197.008 228.5,195.5C 233.975,193.561 239.308,191.228 244.5,188.5C 246.565,164.193 248.232,139.859 249.5,115.5C 230.871,102.513 212.204,89.5126 193.5,76.5C 213.5,65.1664 234.167,54.8331 255.5,45.5 Z"/></g>
<g><path style="opacity:1" fill="#2e9791" d="M 102.5,48.5 C 102.833,48.5 103.167,48.5 103.5,48.5C 105.144,48.2865 106.644,48.6198 108,49.5C 118.26,67.0274 128.76,84.3608 139.5,101.5C 137.95,102.441 136.284,103.107 134.5,103.5C 124.512,86.193 114.012,69.193 103,52.5C 102.51,51.2068 102.343,49.8734 102.5,48.5 Z"/></g>
<g><path style="opacity:1" fill="#319b8d" d="M 102.5,48.5 C 102.343,49.8734 102.51,51.2068 103,52.5C 114.012,69.193 124.512,86.193 134.5,103.5C 133.035,104.737 131.368,105.737 129.5,106.5C 129.167,106.5 128.833,106.5 128.5,106.5C 118.023,88.8886 107.523,71.222 97,53.5C 96.3292,52.7476 95.4959,52.4142 94.5,52.5C 96.8531,50.6567 99.5198,49.3234 102.5,48.5 Z"/></g>
<g><path style="opacity:1" fill="#34a186" d="M 94.5,52.5 C 95.4959,52.4142 96.3292,52.7476 97,53.5C 107.523,71.222 118.023,88.8886 128.5,106.5C 126.287,107.773 123.954,108.773 121.5,109.5C 120.186,106.511 118.853,103.511 117.5,100.5C 115.567,97.9867 113.567,95.4867 111.5,93C 111.833,92.6667 112.167,92.3333 112.5,92C 110.114,89.3383 107.948,86.505 106,83.5C 105.027,81.6079 104.36,79.6079 104,77.5C 101.427,73.4969 98.5938,69.6636 95.5,66C 95.8333,65.6667 96.1667,65.3333 96.5,65C 93.7025,61.8794 91.0358,58.7127 88.5,55.5C 90.1815,53.9925 92.1815,52.9925 94.5,52.5 Z"/></g>
<g><path style="opacity:1" fill="#37a780" d="M 88.5,55.5 C 91.0358,58.7127 93.7025,61.8794 96.5,65C 96.1667,65.3333 95.8333,65.6667 95.5,66C 98.5938,69.6636 101.427,73.4969 104,77.5C 104.36,79.6079 105.027,81.6079 106,83.5C 107.948,86.505 110.114,89.3383 112.5,92C 112.167,92.3333 111.833,92.6667 111.5,93C 113.567,95.4867 115.567,97.9867 117.5,100.5C 118.853,103.511 120.186,106.511 121.5,109.5C 119.365,111.071 117.032,112.404 114.5,113.5C 112.975,109.444 111.141,105.444 109,101.5C 100.32,87.8174 91.8199,73.9841 83.5,60C 82.552,59.5172 81.552,59.3505 80.5,59.5C 82.8485,57.659 85.5152,56.3257 88.5,55.5 Z"/></g>
<g><path style="opacity:1" fill="#3caf76" d="M 80.5,59.5 C 81.552,59.3505 82.552,59.5172 83.5,60C 91.8199,73.9841 100.32,87.8174 109,101.5C 111.141,105.444 112.975,109.444 114.5,113.5C 111.622,115.105 108.622,116.439 105.5,117.5C 94.6064,100.06 83.9397,82.3931 73.5,64.5C 73.0431,63.7025 72.3764,63.3691 71.5,63.5C 74.0884,61.4082 77.0884,60.0749 80.5,59.5 Z"/></g>
<g><path style="opacity:1" fill="#47b56d" d="M 71.5,63.5 C 72.3764,63.3691 73.0431,63.7025 73.5,64.5C 83.9397,82.3931 94.6064,100.06 105.5,117.5C 100.232,120.134 94.8987,122.801 89.5,125.5C 78.8011,107.147 68.1344,88.8132 57.5,70.5C 61.8489,67.6589 66.5156,65.3255 71.5,63.5 Z"/></g>
<g><path style="opacity:1" fill="#53b867" d="M 57.5,70.5 C 68.1344,88.8132 78.8011,107.147 89.5,125.5C 85.5,127.5 81.5,129.5 77.5,131.5C 77.2447,128.984 76.4114,126.65 75,124.5C 65.1644,109.5 55.8311,94.1665 47,78.5C 46.2917,77.6195 45.4584,76.9528 44.5,76.5C 48.4156,73.7105 52.749,71.7105 57.5,70.5 Z"/></g>
<g><path style="opacity:1" fill="#105d8d" d="M 193.5,76.5 C 212.204,89.5126 230.871,102.513 249.5,115.5C 232.167,123.833 214.833,132.167 197.5,140.5C 194.968,141.596 192.635,142.929 190.5,144.5C 189.167,144.833 187.833,145.167 186.5,145.5C 186.167,145.5 185.833,145.5 185.5,145.5C 166.796,132.487 148.129,119.487 129.5,106.5C 131.368,105.737 133.035,104.737 134.5,103.5C 136.284,103.107 137.95,102.441 139.5,101.5C 142.833,99.8333 146.167,98.1667 149.5,96.5C 150.167,96.1667 150.833,95.8333 151.5,95.5C 154.328,94.3447 156.995,93.0114 159.5,91.5C 161.284,91.1075 162.95,90.4408 164.5,89.5C 167.032,88.4043 169.365,87.0709 171.5,85.5C 178.616,81.9409 185.95,78.9409 193.5,76.5 Z"/></g>
<g><path style="opacity:1" fill="#63bb5f" d="M 44.5,76.5 C 45.4584,76.9528 46.2917,77.6195 47,78.5C 55.8311,94.1665 65.1644,109.5 75,124.5C 76.4114,126.65 77.2447,128.984 77.5,131.5C 72.0203,133.405 67.0203,136.071 62.5,139.5C 61.8333,139.5 61.1667,139.5 60.5,139.5C 49.3708,123.939 39.2041,107.605 30,90.5C 28.9509,88.3825 27.4509,86.7158 25.5,85.5C 31.4982,81.9372 37.8315,78.9372 44.5,76.5 Z"/></g>
<g><path style="opacity:1" fill="#73bf56" d="M 25.5,85.5 C 27.4509,86.7158 28.9509,88.3825 30,90.5C 39.2041,107.605 49.3708,123.939 60.5,139.5C 54.2923,142.771 47.9589,145.771 41.5,148.5C 41.4359,146.46 41.2692,144.127 41,141.5C 30.6238,124.63 20.4571,108.296 10.5,92.5C 15.3106,89.9302 20.3106,87.5968 25.5,85.5 Z"/></g>
<g><path style="opacity:1" fill="#7fc251" d="M 10.5,92.5 C 20.4571,108.296 30.6238,124.63 41,141.5C 41.2692,144.127 41.4359,146.46 41.5,148.5C 39.8185,150.008 37.8185,151.008 35.5,151.5C 34.469,150.751 33.3024,150.085 32,149.5C 22.8948,134.28 13.7282,119.28 4.5,104.5C 4.17964,101.102 4.51298,97.7683 5.5,94.5C 7.07536,93.5435 8.74203,92.8769 10.5,92.5 Z"/></g>
<g><path style="opacity:1" fill="#87c44d" d="M 4.5,104.5 C 13.7282,119.28 22.8948,134.28 32,149.5C 33.3024,150.085 34.469,150.751 35.5,151.5C 23.8001,157.682 11.8001,163.349 -0.5,168.5C -0.5,163.833 -0.5,159.167 -0.5,154.5C 1.15935,137.969 2.82601,121.302 4.5,104.5 Z"/></g>
<g><path style="opacity:1" fill="#fdfdfd" d="M 128.5,106.5 C 128.833,106.5 129.167,106.5 129.5,106.5C 148.129,119.487 166.796,132.487 185.5,145.5C 184.564,146.974 183.23,147.974 181.5,148.5C 180.167,149.167 178.833,149.833 177.5,150.5C 175.847,150.66 174.514,151.326 173.5,152.5C 171.181,152.992 169.181,153.992 167.5,155.5C 165.181,155.992 163.181,156.992 161.5,158.5C 159.847,158.66 158.514,159.326 157.5,160.5C 154.256,161.463 151.256,162.796 148.5,164.5C 146.847,164.66 145.514,165.326 144.5,166.5C 140.182,167.992 136.182,169.992 132.5,172.5C 128.646,173.93 124.979,175.597 121.5,177.5C 120.391,177.557 119.391,177.89 118.5,178.5C 99.8707,165.513 81.204,152.513 62.5,139.5C 67.0203,136.071 72.0203,133.405 77.5,131.5C 81.5,129.5 85.5,127.5 89.5,125.5C 94.8987,122.801 100.232,120.134 105.5,117.5C 108.622,116.439 111.622,115.105 114.5,113.5C 117.032,112.404 119.365,111.071 121.5,109.5C 123.954,108.773 126.287,107.773 128.5,106.5 Z"/></g>
<g><path style="opacity:1" fill="#1c77b7" d="M 249.5,115.5 C 248.232,139.859 246.565,164.193 244.5,188.5C 239.308,191.228 233.975,193.561 228.5,195.5C 217.943,177.022 207.61,158.688 197.5,140.5C 214.833,132.167 232.167,123.833 249.5,115.5 Z"/></g>
<g><path style="opacity:1" fill="#105d8c" d="M 60.5,139.5 C 61.1667,139.5 61.8333,139.5 62.5,139.5C 81.204,152.513 99.8707,165.513 118.5,178.5C 117.833,178.5 117.5,178.833 117.5,179.5C 113.849,180.659 110.515,182.326 107.5,184.5C 102.738,185.716 98.4047,187.716 94.5,190.5C 92.1815,190.992 90.1815,191.992 88.5,193.5C 77.5877,197.956 66.9211,202.956 56.5,208.5C 37.6434,195.575 18.6434,182.908 -0.5,170.5C -0.5,169.833 -0.5,169.167 -0.5,168.5C 11.8001,163.349 23.8001,157.682 35.5,151.5C 37.8185,151.008 39.8185,150.008 41.5,148.5C 47.9589,145.771 54.2923,142.771 60.5,139.5 Z"/></g>
<g><path style="opacity:1" fill="#1f7db1" d="M 197.5,140.5 C 207.61,158.688 217.943,177.022 228.5,195.5C 226.819,197.008 224.819,198.008 222.5,198.5C 222.351,196.303 221.518,193.97 220,191.5C 211.439,177.697 203.439,163.697 196,149.5C 194.574,147.234 192.74,145.568 190.5,144.5C 192.635,142.929 194.968,141.596 197.5,140.5 Z"/></g>
<g><path style="opacity:1" fill="#2281ab" d="M 190.5,144.5 C 192.74,145.568 194.574,147.234 196,149.5C 203.439,163.697 211.439,177.697 220,191.5C 221.518,193.97 222.351,196.303 222.5,198.5C 221.486,199.674 220.153,200.34 218.5,200.5C 209.963,184.435 201.13,168.435 192,152.5C 190.334,150.004 188.5,147.671 186.5,145.5C 187.833,145.167 189.167,144.833 190.5,144.5 Z"/></g>
<g><path style="opacity:1" fill="#2586a5" d="M 185.5,145.5 C 185.833,145.5 186.167,145.5 186.5,145.5C 188.5,147.671 190.334,150.004 192,152.5C 201.13,168.435 209.963,184.435 218.5,200.5C 217.486,201.674 216.153,202.34 214.5,202.5C 209.398,196.638 205.565,189.971 203,182.5C 195.498,170.681 188.331,159.348 181.5,148.5C 183.23,147.974 184.564,146.974 185.5,145.5 Z"/></g>
<g><path style="opacity:1" fill="#288c9f" d="M 181.5,148.5 C 188.331,159.348 195.498,170.681 203,182.5C 205.565,189.971 209.398,196.638 214.5,202.5C 213.486,203.674 212.153,204.34 210.5,204.5C 208.871,203.375 207.371,202.041 206,200.5C 196.722,183.599 187.222,166.932 177.5,150.5C 178.833,149.833 180.167,149.167 181.5,148.5 Z"/></g>
<g><path style="opacity:1" fill="#2c9299" d="M 177.5,150.5 C 187.222,166.932 196.722,183.599 206,200.5C 207.371,202.041 208.871,203.375 210.5,204.5C 208.151,206.341 205.485,207.674 202.5,208.5C 192.939,191.097 182.939,173.43 172.5,155.5C 173.127,154.583 173.461,153.583 173.5,152.5C 174.514,151.326 175.847,150.66 177.5,150.5 Z"/></g>
<g><path style="opacity:1" fill="#2f9792" d="M 173.5,152.5 C 173.461,153.583 173.127,154.583 172.5,155.5C 182.939,173.43 192.939,191.097 202.5,208.5C 201.486,209.674 200.153,210.34 198.5,210.5C 188.579,192.366 178.246,174.033 167.5,155.5C 169.181,153.992 171.181,152.992 173.5,152.5 Z"/></g>
<g><path style="opacity:1" fill="#329c8c" d="M 167.5,155.5 C 178.246,174.033 188.579,192.366 198.5,210.5C 196.95,211.441 195.284,212.107 193.5,212.5C 184.217,194.608 174.384,176.942 164,159.5C 163.329,158.748 162.496,158.414 161.5,158.5C 163.181,156.992 165.181,155.992 167.5,155.5 Z"/></g>
<g><path style="opacity:1" fill="#34a086" d="M 161.5,158.5 C 162.496,158.414 163.329,158.748 164,159.5C 174.384,176.942 184.217,194.608 193.5,212.5C 192.035,213.737 190.368,214.737 188.5,215.5C 188.657,214.127 188.49,212.793 188,211.5C 177.656,194.067 167.489,177.067 157.5,160.5C 158.514,159.326 159.847,158.66 161.5,158.5 Z"/></g>
<g><path style="opacity:1" fill="#37a780" d="M 157.5,160.5 C 167.489,177.067 177.656,194.067 188,211.5C 188.49,212.793 188.657,214.127 188.5,215.5C 186.5,216.5 184.5,217.5 182.5,218.5C 182.539,217.417 182.873,216.417 183.5,215.5C 174.389,200.934 165.555,186.268 157,171.5C 155.589,169.35 154.755,167.016 154.5,164.5C 152.5,164.5 150.5,164.5 148.5,164.5C 151.256,162.796 154.256,161.463 157.5,160.5 Z"/></g>
<g><path style="opacity:1" fill="#3caf76" d="M 148.5,164.5 C 150.5,164.5 152.5,164.5 154.5,164.5C 154.755,167.016 155.589,169.35 157,171.5C 165.555,186.268 174.389,200.934 183.5,215.5C 182.873,216.417 182.539,217.417 182.5,218.5C 179.167,220.167 175.833,221.833 172.5,223.5C 172.574,221.589 173.574,220.422 175.5,220C 164.816,201.722 154.483,183.889 144.5,166.5C 145.514,165.326 146.847,164.66 148.5,164.5 Z"/></g>
<g><path style="opacity:1" fill="#53b867" d="M 132.5,172.5 C 143.193,190.552 153.526,208.886 163.5,227.5C 160.956,229.019 158.289,230.352 155.5,231.5C 144.831,213.983 134.331,196.317 124,178.5C 123.329,177.748 122.496,177.414 121.5,177.5C 124.979,175.597 128.646,173.93 132.5,172.5 Z"/></g>
<g><path style="opacity:1" fill="#5cba62" d="M 121.5,177.5 C 122.496,177.414 123.329,177.748 124,178.5C 134.331,196.317 144.831,213.983 155.5,231.5C 152.833,232.833 150.167,234.167 147.5,235.5C 137.665,218.495 127.831,201.495 118,184.5C 117.838,182.546 117.671,180.879 117.5,179.5C 117.5,178.833 117.833,178.5 118.5,178.5C 119.391,177.89 120.391,177.557 121.5,177.5 Z"/></g>
<g><path style="opacity:1" fill="#65bc5e" d="M 117.5,179.5 C 117.671,180.879 117.838,182.546 118,184.5C 127.831,201.495 137.665,218.495 147.5,235.5C 144.167,237.167 140.833,238.833 137.5,240.5C 138.684,238.146 138.518,235.813 137,233.5C 127.67,216.836 117.837,200.503 107.5,184.5C 110.515,182.326 113.849,180.659 117.5,179.5 Z"/></g>
<g><path style="opacity:1" fill="#71bf57" d="M 107.5,184.5 C 117.837,200.503 127.67,216.836 137,233.5C 138.518,235.813 138.684,238.146 137.5,240.5C 135.287,241.773 132.954,242.773 130.5,243.5C 120.173,226.855 110.34,209.855 101,192.5C 99.2111,190.771 97.0444,190.104 94.5,190.5C 98.4047,187.716 102.738,185.716 107.5,184.5 Z"/></g>
<g><path style="opacity:1" fill="#87c44c" d="M 88.5,193.5 C 91.0972,193.721 91.0972,194.221 88.5,195C 90.1817,197.69 91.6817,200.523 93,203.5C 101.328,217.797 109.662,232.13 118,246.5C 118.995,247.066 119.828,247.733 120.5,248.5C 119.399,249.8 118.066,250.3 116.5,250C 96.5966,235.914 76.5966,222.08 56.5,208.5C 66.9211,202.956 77.5877,197.956 88.5,193.5 Z"/></g>
<g><path style="opacity:1" fill="#7cc252" d="M 94.5,190.5 C 97.0444,190.104 99.2111,190.771 101,192.5C 110.34,209.855 120.173,226.855 130.5,243.5C 127.232,245.134 123.899,246.801 120.5,248.5C 119.828,247.733 118.995,247.066 118,246.5C 109.662,232.13 101.328,217.797 93,203.5C 91.6817,200.523 90.1817,197.69 88.5,195C 91.0972,194.221 91.0972,193.721 88.5,193.5C 90.1815,191.992 92.1815,190.992 94.5,190.5 Z"/></g>
<g><path style="opacity:1" fill="#47b56d" d="M 144.5,166.5 C 154.483,183.889 164.816,201.722 175.5,220C 173.574,220.422 172.574,221.589 172.5,223.5C 169.622,225.105 166.622,226.439 163.5,227.5C 153.526,208.886 143.193,190.552 132.5,172.5C 136.182,169.992 140.182,167.992 144.5,166.5 Z"/></g>
</svg>
